# xmcd
#
# Track frame offsets:
#	150
#	14175
#	28987
#	40755
#	56110
#	69075
#	82390
#	103867
#	124067
#	139985
#	149067
#	173059
#
# Disc length: 2692 seconds
#
# Revision: 1
# Processed by: cddbd v1.5.2PL0 Copyright (c) Steve Scherf et al.
# Submitted via: audiograbber 1.83.01
#
DISCID=bc0a820c
DTITLE=The Celicates - Suicide Boogie
DYEAR=1900
DGENRE=Rock and Roll
TTITLE0=Leave this place
TTITLE1=Queeny Fat Girl
TTITLE2=Surf in Evil Place
TTITLE3=Nite Ship
TTITLE4=Clouds of Blood
TTITLE5=Dinintel are Go!
TTITLE6=Crazy Fool
TTITLE7=Sickness
TTITLE8=Mr Country ('s just behind me)
TTITLE9=King Fucker
TTITLE10=Suicide Boogie
TTITLE11=Gina
EXTD=
EXTT0=
EXTT1=
EXTT2=
EXTT3=
EXTT4=
EXTT5=
EXTT6=
EXTT7=
EXTT8=
EXTT9=
EXTT10=
EXTT11=
PLAYORDER=
